 <svg  version="1.0" xmlns="http://www.w3.org/2000/svg"  width="300.000000pt" height="273.000000pt" viewBox="0 0 300.000000 273.000000"  preserveAspectRatio="xMidYMid meet">  <g transform="translate(0.000000,273.000000) scale(0.100000,-0.100000)" fill="#2e78ef" stroke="none"> <path d="M469 2141 c-16 -16 -29 -35 -30 -43 -5 -85 0 -1020 5 -1025 10 -10 1133 -11 1149 -1 9 6 12 122 12 524 l-1 516 -32 29 -32 29 -521 0 -521 0 -29 -29z m1079 -26 l22 -19 0 -487 c0 -393 -3 -489 -13 -498 -19 -15 -1063 -13 -1076 3 -13 16 -13 932 0 973 7 21 20 35 37 41 16 6 232 9 517 7 466 -1 492 -2 513 -20z"/> <path d="M1721 1951 c-21 -21 -21 -28 -21 -504 l0 -484 -255 2 -255 1 30 -31 c17 -17 39 -54 49 -81 l19 -49 266 -3 c245 -2 266 -1 266 15 0 28 38 97 72 133 18 18 57 44 87 58 137 63 313 -15 355 -158 l13 -45 132 -3 c72 -1 139 1 148 6 11 7 16 27 18 76 3 78 -11 92 -76 83 l-39 -5 0 248 c0 193 -3 257 -15 289 -8 24 -62 113 -121 199 -183 270 -175 265 -451 270 -193 4 -202 3 -222 -17z m445 -37 c45 -23 82 -63 132 -139 26 -38 52 -76 59 -83 7 -7 25 -34 40 -60 14 -26 37 -62 51 -80 42 -57 50 -116 52 -350 1 -234 6 -262 54 -262 12 0 30 -8 38 -17 18 -20 21 -70 6 -79 -19 -12 -195 -6 -215 7 -11 6 -25 27 -32 45 -13 37 -90 117 -133 139 -119 59 -266 30 -358 -72 -39 -43 -75 -103 -63 -103 4 0 0 -5 -9 -11 -16 -9 -105 -11 -385 -10 l-93 1 -15 36 c-8 20 -15 40 -15 45 0 4 93 9 206 11 l206 3 24 30 23 29 -5 434 c-3 307 -1 445 7 469 l11 34 193 -1 c149 -1 199 -5 221 -16z"/> <path d="M1888 1823 c-15 -2 -37 -15 -50 -28 -21 -22 -23 -33 -24 -139 -1 -120 10 -168 44 -181 10 -4 114 -6 232 -6 212 1 214 1 238 25 33 32 24 66 -41 155 -29 39 -64 88 -79 110 -40 57 -75 69 -193 68 -55 0 -112 -2 -127 -4z m257 -41 c25 -17 176 -245 173 -260 -3 -15 -25 -17 -233 -17 l-230 0 -3 129 c-1 72 0 136 2 143 4 10 39 13 143 13 76 0 143 -4 148 -8z"/> <path d="M368 960 c-23 -14 -19 -138 5 -152 9 -4 98 -7 198 -6 l183 3 9 35 c5 19 24 56 43 83 l34 47 -228 0 c-129 0 -234 -5 -244 -10z m387 -32 c9 -9 -30 -78 -48 -84 -27 -9 -292 -9 -306 0 -12 8 -15 55 -3 72 4 7 18 14 32 15 29 5 321 2 325 -3z"/> <path d="M972 960 c-157 -37 -207 -249 -83 -353 97 -82 248 -51 308 62 58 111 0 250 -121 286 -54 16 -56 16 -104 5z m132 -60 c121 -77 93 -257 -47 -297 -151 -44 -271 162 -158 271 68 65 130 73 205 26z"/> <path d="M1000 890 c-74 -13 -107 -48 -111 -115 -3 -52 17 -93 61 -123 29 -20 43 -23 84 -18 52 6 79 24 102 68 16 31 19 104 4 113 -5 3 -10 14 -10 23 0 16 -24 32 -75 51 -11 4 -36 5 -55 1z m91 -59 c42 -42 40 -92 -5 -137 -38 -38 -70 -43 -116 -19 -37 19 -50 43 -50 90 0 86 109 128 171 66z"/> <path d="M2021 955 c-168 -53 -189 -289 -32 -372 115 -61 263 9 290 137 32 150 -111 282 -258 235z m122 -39 c18 -7 47 -29 66 -49 30 -31 33 -41 34 -94 1 -105 -53 -164 -154 -169 -47 -2 -63 1 -97 23 -52 34 -76 86 -70 151 11 112 121 181 221 138z"/> <path d="M2018 879 c-52 -27 -81 -90 -67 -144 23 -86 89 -120 179 -95 46 13 90 78 90 132 0 21 -3 38 -8 38 -4 0 -12 10 -17 22 -26 56 -114 79 -177 47z m131 -45 c25 -21 31 -33 31 -66 0 -50 -13 -74 -50 -93 -43 -22 -76 -18 -112 14 -28 25 -33 36 -33 76 0 39 5 51 28 71 39 33 95 33 136 -2z"/> </g> </svg> 